<?xml version="1.0" encoding="UTF-8"?>
<svg xmlns="http://www.w3.org/2000/svg" viewBox="0 0 1773 887" role="img" aria-label="SPORTKING logo">
  <title>SPORTKING</title>
  <g fill="#000000" fill-rule="evenodd">
    <path d="M 668.0,773.0 L 730.0,733.0 L 747.0,725.0 L 773.0,719.0 L 799.0,720.0 L 854.0,731.0 L 895.0,736.0 L 926.0,736.0 L 946.0,734.0 L 989.0,725.0 L 1027.0,712.0 L 1069.0,693.0 L 1092.0,679.0 L 1047.0,679.0 L 1004.0,694.0 L 978.0,700.0 L 948.0,704.0 L 909.0,704.0 L 883.0,701.0 L 812.0,684.0 L 769.0,678.0 L 718.0,678.0 L 670.0,683.0 L 672.0,685.0 L 702.0,694.0 L 703.0,699.0 L 692.0,731.0 L 682.0,751.0 Z"/> <path d="M 1227.0,498.0 L 1227.0,650.0 L 1269.0,649.0 L 1270.0,570.0 L 1318.0,650.0 L 1359.0,650.0 L 1360.0,498.0 L 1318.0,499.0 L 1319.0,571.0 L 1317.0,573.0 L 1270.0,498.0 Z"/> <path d="M 1161.0,498.0 L 1160.0,649.0 L 1204.0,650.0 L 1205.0,498.0 Z"/> <path d="M 1011.0,498.0 L 1011.0,650.0 L 1055.0,650.0 L 1055.0,607.0 L 1065.0,595.0 L 1100.0,650.0 L 1151.0,650.0 L 1096.0,564.0 L 1147.0,498.0 L 1097.0,498.0 L 1056.0,555.0 L 1055.0,498.0 Z"/> <path d="M 869.0,498.0 L 869.0,535.0 L 910.0,536.0 L 910.0,649.0 L 954.0,650.0 L 954.0,536.0 L 995.0,535.0 L 996.0,499.0 Z"/> <path d="M 735.0,498.0 L 735.0,650.0 L 779.0,650.0 L 780.0,599.0 L 792.0,600.0 L 819.0,650.0 L 868.0,650.0 L 834.0,592.0 L 852.0,577.0 L 860.0,559.0 L 860.0,538.0 L 852.0,519.0 L 836.0,505.0 L 818.0,499.0 Z M 779.0,534.0 L 800.0,533.0 L 809.0,536.0 L 814.0,541.0 L 816.0,547.0 L 814.0,557.0 L 805.0,564.0 L 780.0,565.0 Z"/> <path d="M 432.0,498.0 L 432.0,650.0 L 476.0,650.0 L 476.0,603.0 L 510.0,602.0 L 522.0,600.0 L 536.0,594.0 L 544.0,588.0 L 552.0,578.0 L 557.0,566.0 L 559.0,551.0 L 556.0,532.0 L 550.0,520.0 L 542.0,511.0 L 535.0,506.0 L 520.0,500.0 L 510.0,498.0 Z M 476.0,535.0 L 478.0,533.0 L 497.0,533.0 L 508.0,537.0 L 514.0,548.0 L 514.0,554.0 L 511.0,561.0 L 507.0,565.0 L 500.0,568.0 L 478.0,568.0 Z"/> <path d="M 1402.0,509.0 L 1391.0,520.0 L 1385.0,529.0 L 1379.0,543.0 L 1375.0,563.0 L 1375.0,586.0 L 1377.0,598.0 L 1381.0,611.0 L 1392.0,630.0 L 1408.0,644.0 L 1418.0,649.0 L 1433.0,653.0 L 1456.0,652.0 L 1470.0,645.0 L 1479.0,635.0 L 1484.0,650.0 L 1513.0,650.0 L 1514.0,571.0 L 1512.0,564.0 L 1448.0,564.0 L 1447.0,595.0 L 1471.0,596.0 L 1467.0,607.0 L 1461.0,613.0 L 1454.0,616.0 L 1441.0,616.0 L 1433.0,612.0 L 1424.0,600.0 L 1420.0,585.0 L 1420.0,562.0 L 1422.0,552.0 L 1426.0,543.0 L 1434.0,535.0 L 1446.0,531.0 L 1457.0,533.0 L 1465.0,539.0 L 1471.0,550.0 L 1511.0,543.0 L 1509.0,532.0 L 1500.0,517.0 L 1491.0,508.0 L 1475.0,499.0 L 1449.0,494.0 L 1426.0,497.0 L 1415.0,501.0 Z"/> <path d="M 630.0,495.0 L 612.0,500.0 L 599.0,507.0 L 584.0,521.0 L 577.0,532.0 L 571.0,548.0 L 568.0,565.0 L 570.0,596.0 L 574.0,609.0 L 582.0,624.0 L 594.0,637.0 L 604.0,644.0 L 615.0,649.0 L 631.0,653.0 L 655.0,653.0 L 666.0,651.0 L 691.0,639.0 L 700.0,631.0 L 709.0,619.0 L 714.0,609.0 L 720.0,586.0 L 720.0,564.0 L 718.0,552.0 L 709.0,529.0 L 700.0,517.0 L 690.0,508.0 L 678.0,501.0 L 663.0,496.0 L 646.0,494.0 Z M 638.0,532.0 L 649.0,532.0 L 659.0,536.0 L 667.0,544.0 L 674.0,566.0 L 674.0,581.0 L 670.0,598.0 L 667.0,604.0 L 659.0,612.0 L 649.0,616.0 L 635.0,615.0 L 626.0,610.0 L 619.0,601.0 L 614.0,583.0 L 614.0,564.0 L 618.0,549.0 L 626.0,538.0 Z"/> <path d="M 330.0,496.0 L 313.0,502.0 L 302.0,510.0 L 294.0,520.0 L 289.0,534.0 L 289.0,552.0 L 291.0,559.0 L 296.0,568.0 L 310.0,580.0 L 366.0,598.0 L 371.0,605.0 L 370.0,611.0 L 365.0,616.0 L 360.0,618.0 L 344.0,618.0 L 337.0,615.0 L 331.0,609.0 L 328.0,599.0 L 318.0,599.0 L 286.0,604.0 L 285.0,610.0 L 287.0,618.0 L 294.0,631.0 L 304.0,641.0 L 317.0,648.0 L 337.0,653.0 L 365.0,653.0 L 376.0,651.0 L 393.0,644.0 L 409.0,629.0 L 416.0,611.0 L 416.0,596.0 L 414.0,588.0 L 407.0,576.0 L 398.0,568.0 L 381.0,560.0 L 341.0,549.0 L 334.0,543.0 L 333.0,539.0 L 338.0,531.0 L 348.0,528.0 L 357.0,529.0 L 364.0,532.0 L 368.0,536.0 L 371.0,545.0 L 412.0,539.0 L 412.0,533.0 L 403.0,515.0 L 395.0,507.0 L 383.0,500.0 L 370.0,496.0 L 354.0,494.0 Z"/> <path d="M 1235.0,465.0 L 1226.0,433.0 L 1210.0,393.0 L 1189.0,351.0 L 1166.0,313.0 L 1126.0,259.0 L 1068.0,192.0 L 996.0,87.0 L 984.0,75.0 L 972.0,70.0 L 954.0,70.0 L 934.0,76.0 L 845.0,113.0 L 799.0,128.0 L 791.0,133.0 L 785.0,140.0 L 780.0,152.0 L 775.0,176.0 L 771.0,211.0 L 771.0,230.0 L 777.0,245.0 L 786.0,252.0 L 799.0,256.0 L 800.0,268.0 L 807.0,278.0 L 816.0,283.0 L 826.0,285.0 L 841.0,283.0 L 856.0,275.0 L 866.0,278.0 L 876.0,277.0 L 888.0,270.0 L 905.0,266.0 L 920.0,255.0 L 932.0,232.0 L 948.0,223.0 L 950.0,225.0 L 964.0,257.0 L 971.0,291.0 L 972.0,330.0 L 967.0,376.0 L 967.0,398.0 L 969.0,410.0 L 968.0,411.0 L 946.0,400.0 L 919.0,392.0 L 901.0,389.0 L 870.0,389.0 L 845.0,394.0 L 813.0,408.0 L 795.0,421.0 L 773.0,445.0 L 753.0,439.0 L 730.0,435.0 L 693.0,434.0 L 668.0,438.0 L 652.0,443.0 L 619.0,460.0 L 661.0,451.0 L 705.0,450.0 L 745.0,456.0 L 780.0,466.0 L 789.0,454.0 L 804.0,439.0 L 822.0,426.0 L 853.0,413.0 L 887.0,409.0 L 915.0,413.0 L 943.0,423.0 L 967.0,439.0 L 981.0,453.0 L 988.0,463.0 L 992.0,465.0 L 1059.0,464.0 L 1035.0,429.0 L 1026.0,410.0 L 1020.0,392.0 L 1014.0,363.0 L 1006.0,288.0 L 1007.0,287.0 L 1030.0,309.0 L 1038.0,315.0 L 1041.0,315.0 L 971.0,191.0 L 962.0,180.0 L 959.0,180.0 L 940.0,200.0 L 921.0,209.0 L 913.0,209.0 L 905.0,206.0 L 899.0,195.0 L 897.0,195.0 L 893.0,208.0 L 894.0,225.0 L 900.0,232.0 L 916.0,233.0 L 913.0,240.0 L 908.0,245.0 L 898.0,249.0 L 889.0,249.0 L 882.0,245.0 L 877.0,239.0 L 870.0,218.0 L 863.0,180.0 L 858.0,181.0 L 852.0,189.0 L 849.0,207.0 L 850.0,233.0 L 854.0,249.0 L 853.0,252.0 L 845.0,241.0 L 835.0,192.0 L 824.0,164.0 L 821.0,163.0 L 818.0,168.0 L 815.0,196.0 L 817.0,243.0 L 812.0,234.0 L 809.0,223.0 L 802.0,160.0 L 805.0,151.0 L 810.0,146.0 L 851.0,132.0 L 953.0,91.0 L 968.0,91.0 L 974.0,94.0 L 981.0,101.0 L 1046.0,199.0 L 1065.0,223.0 L 1113.0,277.0 L 1147.0,324.0 L 1166.0,355.0 L 1187.0,396.0 L 1201.0,429.0 L 1213.0,465.0 Z"/>
  </g>
</svg>
